<?xml version="1.0" encoding="utf-8"?>
<!-- Generator: Adobe Illustrator 23.0.3, SVG Export Plug-In . SVG Version: 6.00 Build 0)  -->
<svg version="1.1" id="Layer_1" xmlns="http://www.w3.org/2000/svg" xmlns:xlink="http://www.w3.org/1999/xlink" x="0px" y="0px"
	 width="60" height="60" viewBox="0 0 64 64" style="enable-background:new 0 0 64 64;" xml:space="preserve">
<style type="text/css">
	.st0{fill:#0364B8;}
	.st1{fill:#0F78D4;}
	.st2{fill:#1490DF;}
	.st3{fill:#28A8EA;}
</style>
<title>OneDrive_64x</title>
<path class="st0" d="M36.9,33.5c0,0,11.6-6.5,11.8-6.4c-2.3-9-11.5-14.5-20.5-12.2c-4.1,1-7.6,3.6-9.9,7.1
	C18.4,22,36.9,33.5,36.9,33.5z"/>
<path class="st1" d="M25.6,24L25.6,24c-2.1-1.3-4.6-2-7.1-2c-0.1,0-0.1,0-0.2,0C10.9,22.1,4.9,28.2,5,35.7c0,2.7,0.9,5.3,2.4,7.6
	l18.6-1.9l10.9-10.5L25.6,24z"/>
<path class="st2" d="M48.8,27.1c-0.2,0-0.5,0-0.7,0c-1.5,0-3,0.3-4.3,0.9l0,0l-6.8,2.8l7.4,8.2l13.4,4.2c2.9-5.3,0.9-12-4.5-14.9
	C51.9,27.6,50.3,27.2,48.8,27.1L48.8,27.1z"/>
<path class="st3" d="M48.1,37.5l-2.8-1.7L38.9,32l-2-1.2L31.8,33l-9.9,4.2L17.4,39l-10,4.2c2.5,3.6,6.7,5.8,11.1,5.8H48
	c4,0,7.7-2.2,9.7-5.8L48.1,37.5z"/>
</svg>
