<svg id="Layer_1" data-name="Layer 1" xmlns="http://www.w3.org/2000/svg" viewBox="0 0 315.39 113.14"><title>SoftchoiceLogo2010</title><path d="M685.81,369.21c.15-.12.35-.29.57-.14C685.81,368.85,685.56,369.31,685.81,369.21Z" transform="translate(-448.37 -305.89)" style="fill:#f68b33"/><path d="M686.08,370.92c.63-.28-1.32-1.07-.35-.32C685.17,369.61,686.61,370.65,686.08,370.92Z" transform="translate(-448.37 -305.89)" style="fill:#f68b33"/><path d="M686.2,369.83l0-.42a7.45,7.45,0,0,0-.88.79C685.62,370.15,686.21,369.68,686.2,369.83Z" transform="translate(-448.37 -305.89)" style="fill:#f68b33"/><path d="M749.5,317.88a13,13,0,0,1-1.32.09A5.78,5.78,0,0,0,749.5,317.88Z" transform="translate(-448.37 -305.89)" style="fill:#f68b33"/><path d="M723.32,329.26l-.34-.2C722.76,329.29,722.67,329.46,723.32,329.26Z" transform="translate(-448.37 -305.89)" style="fill:#f68b33"/><path d="M748,322.91a.45.45,0,0,0-.12-.4l-.29.07Z" transform="translate(-448.37 -305.89)" style="fill:#f68b33"/><path d="M760.88,330.2l-.07.06-.32,1.11A1.91,1.91,0,0,0,760.88,330.2Z" transform="translate(-448.37 -305.89)" style="fill:#f68b33"/><path d="M715.45,332.59l-.78,1C715.39,333.17,715.65,332.75,715.45,332.59Z" transform="translate(-448.37 -305.89)" style="fill:#f68b33"/><polygon points="299.65 12.09 299.64 12.09 299.81 12.08 299.65 12.09" style="fill:#f68b33"/><path d="M754.26,324.13a1.83,1.83,0,0,0-.75-.33A1.93,1.93,0,0,0,754.26,324.13Z" transform="translate(-448.37 -305.89)" style="fill:#f68b33"/><path d="M703.32,360l.69-.57A1.68,1.68,0,0,0,703.32,360Z" transform="translate(-448.37 -305.89)" style="fill:#f68b33"/><path d="M714.63,312.11l.13.21Z" transform="translate(-448.37 -305.89)" style="fill:#f68b33"/><path d="M687.45,319.41l-.23.43C687.48,319.75,687.55,319.56,687.45,319.41Z" transform="translate(-448.37 -305.89)" style="fill:#f68b33"/><path d="M658.91,332.4c2-1.21,3-3.52,4.5-4.84l-.28.72,1.31-1.52.31.44c2.3-2.35,5.8-4.38,6.25-5.78l.2.92,2.35-2.62-1.25,1.66c3.17-2.18,7.61-6,8.37-6.45l-.14.45a4.1,4.1,0,0,0,1.43-1.1l-.18.69c4.88-3.2,6.71-3.08,12.36-6.4,1.64-.69-.83.58-.73.84a10.47,10.47,0,0,0,3.36-1.73c-.22.88-2.84,1.73-.69,1.49,1.22-.89-.68,1,1.68-.09l.61-1.28c1.41-.37.5.57,2.61-.3,2.47-1.14-3.49-.12.67-1.46,2.19-.55,4.83.74,9,.45,3.6,1.15-2,1,2.79,1.88a11.14,11.14,0,0,0-3,0c.71.39.18.8,2.06.87a4.44,4.44,0,0,1,2.89.64c-3.63-1.76,1.72,3-1.49,1.43.42.08.5.53.72.83-.1-.1-.19-.08-.21,0l.71,1.25c-.69-.73-1.77-2.15-1.72-1a4.9,4.9,0,0,0,.7,1.49c-.75-.11-.59.38-1,.45-1.17-.75-1.17-.94-3-.67.17-.28.88-.39.7-.75-1.25-.54-1,.33-2.66.11l.69-.5c-.12.17-.35.25,0,.26.59.21.83-.15.85-.43-.59-.45-2.35.1-2.75.5-2.33.46-.68-.86-1.22-.89-1,1.21-4.05,1-5.46,2.19l.77-.95a7.83,7.83,0,0,0-4.59,2l.22-.64c-2.51,1.37-4.57.5-5.69,3.16l.11-.43c-1.11.46-2.85,1.07-3.6,2.08-.12-.17-.41-.27-.85-.06-.23.92-1.52,1.17-3.07,2,.91-.79.16-1.31,1.08-2.17-2.76.78-1.65,2.15-3.55,3.46-1.36.45.76-1.13.88-1.56-2.67,2.4-7.16,2.63-7.95,5.44l1.53-.5c-.92,1.18-1.53,1.65-1.49,1.42a.83.83,0,0,0,.46-.69c-4,1.93-4.52,5.21-7.93,7.79,0-.45.41-1,.26-1.18-1.68,1.12-.34,2.56-3.12,4.24l.22-.69c-1,.55-1.09,1.55-.93,1.5-1.13-1-4.57,4.86-7.16,5.59,0,.43-1.91-.27-1.71.24h0l1,0a20.8,20.8,0,0,1,3.26.23c1.9.81-1.66,1-1,1.76,1.57,0,2.31-.77,4.59-.83-.12-.76-4.49-1.12-.47-2l.62.36a4.75,4.75,0,0,0-1.61.1c-1.12.59.76.46,1.08.61,1.48-.24,3-.66,4.42-1,.14-.91-2.44-.18-2.76-.34,3.48-.39,8.07-.42,11.16-2l-.21.41c3.93-2,2.9.7,5.77-1.72,1.81-.39-.33,1.09,2.31.22.74-.27.21-.41,0-.46,3.14-1.46,1.71.26,4.39-1.58l-.32,1.09c3.34-1.91,6.48-4.84,9.64-5.66.05.73-1.84,1.4-2.4,2.2,3.69-2.79,9.8-4,13.4-6.16-1.35-.1,1.32-2-1.31-1.5-.31,1.09-1.65,1-2.92,1.59,1.43-2.7,9.18-2.55,9.26-4.4l.8.45c.55-.32,1.87-1.38.77-1.2l4.41-1.15c-1.34,1-4.06,3.36-5.3,3-1,1.17,1.9-.19,1.12,1,2.44-2.15,1.89-.19,4.75-1.5-1.67-.48,2.49-2.35,2.2-2.77a11.83,11.83,0,0,0,3.8-2c1.71-.69,6-1.16,8.72-2.29-1,.62-2.58,1.51-2.28,2.1,1.28-.75,2.8-1.19,3.26-.51-4.53,2.72-2.05-1.26-6.24,1-.84,1.15-2,1.74-4.12,2.74,1.15.13.77.48,1.37.9,2.19-2.65,7-2.48,10.49-4.24,1.42-.88,0-1.79,3.55-2.72l-3.23.14c3.5-.29.69-.71,3.52-1.52l-1,.83a7.61,7.61,0,0,0,3.3-1l-1.35,1.13c1,0,2.73-.18,2.71-.72a.8.8,0,0,1,.38.5c.16-.19.63-.32,1.76-.38-.64.16-1.14.14-1.12.41,4.3-.51,1.05.81,3.71.68-.42.21.35.48,1.27.6-.1-1.6,5.51-1.15,7.51-.42h0a9.48,9.48,0,0,1,3.9,3c-.65-.81-.32.38.23,1.67l-.11-.2c.27,1.26-1.79-.9-.22,2.82a4.24,4.24,0,0,1,.64,2.21c0-.41-.27,0-.39.17a12.25,12.25,0,0,1,0,2.42c-2.41,2.54-2.77,5.8-6,7.56.86-.56,2-1.61,1.2-1.52a4.4,4.4,0,0,0-1.57,1.54l.05-.23a48.14,48.14,0,0,1-4.95,4.28c.26-.59,3.24-2.64,1.61-2.2-1.08,0-2.32,1.44-3.29,2,.3.26,2.28-.45.51.75-.31,0-2.23.57-1.53-.12-1.73,1.36-3.33,2.13-4.81,3.54-.62.09.18-.43.47-.61l.17,0c1.08-.75-1.29-.2,1.13-1-.3-1.21-3.4,1.28-5.49,2l2.86-2.18c-6,.9-12.61,5.49-18,7.61,1.72-.26,2.91-1.11,3.05-.13a58.78,58.78,0,0,1-6.12,2.84l.27-.16c-1.89.2-3.92,2-5.34,1.64.56-.8,2.63-.49,2.29-1.51l-4.17,1.72c1.09-1.13,4.17-1.72,5.73-2.49,1.17-.39-2.28,1-1.51,1.49a12.78,12.78,0,0,0,6.18-4.25c.93-1.15-2,0-2.7.24a23.18,23.18,0,0,1-9.68,5l-2.41.1c-1.64,1.5-.32,2.49-3.77,3.77l.79-1a6,6,0,0,0-1.72.42c1.27-1.08,2.71-2.16,3.9-3.16-2.42-.34-5.49,2.92-8.09,4.55.06-.21,1-.79,1.16-1.18-4.41,1.76-7.23,6.29-9.7,8.81-1.47.63,2-2.26.92-2.39-1.22,1.5-3.24,2.48-3.12,3.38-.12-1.36-3.18,3.06-1.25-.25a36.56,36.56,0,0,0-3.76,3.76c.73,2.26,2.21-1.78,3.21-2.44,1.9-2.3,4.28-8,8.29-4.85-.45.11-.57.34-.43.69-.87-.62-2.59-1.35-3.38-.85a8.47,8.47,0,0,0-1.5,2.88c1.52-1,1.74-3.28,2.12-2.57-.17-.12-1,1-.71,1.5a5.75,5.75,0,0,0,1-.84c-.26.49-.75.18-.33.23a2.57,2.57,0,0,1,1.59.16l-.52-.54a27.06,27.06,0,0,0,3.43.79c-.09.37,3.55.42,1.46,4.13-2,.37-.54-.5-1-1.13-.61.94-4.21.36-5.2,1.24l2.74.23a39.85,39.85,0,0,1-5.08,1.27c.15-.18.26-1.13.65-1.21-1.56.37-3.53.19-4.42.54l-.28-.91c.78.63,3.65.77,4.09.23-.27-.72-3.06-.24-4.14-.65,5.15.33,5.31-1.25,9.43-1.46l-.61.45c4-.55,2.11,0-.13-1.91.44.47.33.84,0,.78-2.82-1.82-1.06-2.2-3.87.85l-2.95,3.36-1.6,1.71a5.27,5.27,0,0,1-.76.72,2.16,2.16,0,0,1-1,.47c0-.11-1.27.35-2-1.7,0-1.67.52-1.65.56-1.89l.89-.87.77-2,.53.36c2.45-2.11-.13-1.15,1.38-2.58-.57.56-.39.53-.39.76,2.18-3.16,1.88-1,3.27-2.6-.29,1.19-2.76,3-1.48,3a55.39,55.39,0,0,1,8.2-9.76c5.95-4.68,11.21-5.93,17.38-7.94.82,0-.37.38,0,.47,1.78-1.67,7.19-2.11,7-2.88a3.47,3.47,0,0,1,2,.31,27,27,0,0,1,4.37-2.44l-1.16.69.18,0,1.62-1-.08,0c4.1-1.85,8.94-3.69,12.25-6.16-1.9,1.47.9.66,0,1.42,1.35-2.06,5.72-4.14,8.94-6.09.13.23.48.26.22.69L750.2,334l-.08.42c3.57-2.1,4.85-6,5.21-6.7.25.74,0,1,.51,1.21a4,4,0,0,0-1.58-4.82l.3-.07c-.24-.53-1.17-.52-1.72-.67l.15-.63c-1.31-.18-3.22-.82-5.13-.24-.76-.8-4.63,1-6.93,1.15-.86.34,1.79-1.12-.68-.57-.08,1.42-3.22.73-3.08,2.28h-2.29l-.28.86c-2.19-.84-2.62,1.38-5.44,1.83.09-.2.35-.34.2-.42-.84.43-2.83,1.2-1.15,1-1.45.46-6.26,2.5-4.3,1,0,.47,1.89-.57,2.71-1-.31-.57-2.41.4-3.16-.08a5.6,5.6,0,0,1-.48.47l-.44-.25c-2.5,1.62-5.44,2.18-7.1,3.78-.18-.14-.72-.1-1.64.3l.23.78-2.88,1.08.94-1.62c-3.25,1-5,3.14-7.57,4.34-1.13-1-4.93,2.49-7.62,2.26l1.93-1.14c-4.3,1.94-5.27,1.45-9.23,3.46a73.48,73.48,0,0,1,9-2.11c-5.27,1.46-8.54,4.13-13.54,5.12.22-.42,1.34-1,.07-.93-.7,1-4.48,1.57-3.53,2.09-1.58.25-2.07-.37-3-.18l-4.79,2.25.1.1c-4.67.79-8.07,2-13.21,2.5a25.38,25.38,0,0,1-5.24.1c-3.08,0-7.67-1.73-6.1-7a24.12,24.12,0,0,1,2.1-3.63c.81-1.11.88-2,1.74-2.91l.2.44,1.12-2.34c-1,1.74.94-.27,1.31-.06,1.19-1.65,2.34-3.42,3.62-5C659.79,330.65,660.08,331.53,658.91,332.4Zm54.71.43,1.22-.52a2,2,0,0,0,.78-.34l-.78.34C714.18,332.45,713.58,332.32,713.62,332.83Zm-16.94,26.38a18.92,18.92,0,0,1,2-1.3c-.48.19-1.9,1.29-1.47.6C697,358.74,696.31,359.21,696.68,359.21Zm15.23-31.28-.87-.24-.76.74Zm-17.73,6.87,1.66-1-.17,0-1.65,1Zm-18.56,11.33.32-.22-.32.22c-1.31.84-2.17.06-3.09,1.29C674.21,347.79,674.91,346.71,675.63,346.13Zm31.5-11.73a4.72,4.72,0,0,1,1.29-.61c-.21.42-1.21,1.33-.31,1.09.46-.58,2.45-1.45,2.3-2C708.84,334.14,707.07,333.2,707.13,334.4Zm42.73-12.71-1.57.37.42.06Zm5.51,2.88c.86,1.26,1.33,2.14,2,1.77-.33-1.25-1.44-3.24-2.44-3C755.62,323.52,754.08,323.84,755.36,324.57Zm-62.21,14.18.28-.62-.45.1,1.66-1c-2.53.27-3.76,2.05-4.88,2.7C690.79,339.53,693.21,337.35,693.15,338.75ZM751,335.38c-.62.38-2.46,2.08-1.91,2.81-.51-.29,1.89-2.34,2.91-3.69A2.67,2.67,0,0,1,751,335.38Zm2.06.46a7.1,7.1,0,0,0,2.1-4.22c-1.61,1.41-1.61,2.56-1,2.8-1.05,1.41-1.16.74-1.92,1.22Zm.36-3.56a4.55,4.55,0,0,0,.67-.55c.81-.48,2.11,0,1.86-1.79-.31.66-1.29,1.21-1.86,1.79A3.26,3.26,0,0,0,753.45,332.27Zm-17.51,10,.79-.7c-.89.44-1,.6-.79.7l-.7.6C737.39,342.3,736.23,342.46,735.94,342.29Zm16.19-8.68a15.31,15.31,0,0,1-2.19,1.71C750.79,335,752.29,334.06,752.13,333.61Zm-15.3,9.17c1.17-.44,4.15-1.65,3.71-1.53C740.09,341,737.44,342.21,736.83,342.77Zm-49.68,28.71L685.9,373l1.09-.27ZM697.3,361.3h-.56l-.89.68Zm18.56-8.21c-.13-.09-.16-.28-.05-.48a1.42,1.42,0,0,0,.57-.51,1.05,1.05,0,0,0-.57.51,6.46,6.46,0,0,1-2.45.82c.2-.42,1.37-.83,1.76-1.2-2,0-5.07,3.63-4.72,1.14-.65.54-2.94,2.09-1.94,2.09a33.52,33.52,0,0,1,7.4-2.38.8.8,0,0,0,.67,0A1.91,1.91,0,0,0,715.86,353.09Zm25.45-9.84a5,5,0,0,0,1.06-.72c.51-.43.88-.87.57-1.06-1.31.92-.3.71-.57,1.06Zm4.42-2-2.09,1.5.94-1-3.06,2.48C743.68,343.64,745.71,341.95,745.72,341.23Zm1,0,.24-.72-.47.87.23-.15-.05.16c1.2-.8,2.43-1.49,3.58-2.39C749.07,339.81,747.85,340.43,746.67,341.18Zm-2.84-21.3-2,.23a12.06,12.06,0,0,1,3.95-.88c-2.25-1.34-.76.27-4.36.18,4.1-.59,2.43-1.29,2.16-1.86-.77.92-6.11,1.41-4.2,2.9C740.72,319.78,742.88,321.17,743.83,319.88Zm-25.35,6.53-2.3,1,2.49-1Zm-61.65,19.4c.84,0-4.45-2.35-2-.21C652.94,344.49,657.16,345.9,656.83,345.81ZM671.22,328l-2.08,2.2c1,.4,2-1.77,3.21-2.48C672.46,327.08,671.79,328,671.22,328Zm16.22-10.44.39-1.32-.75.61Zm-2.14,2.58c.43-.22,2-1.47,1.3-1.54ZM701.77,311l-.74,1.21,1.13-.37Zm-1.31-.12a.93.93,0,0,0-.41.71,5.18,5.18,0,0,1-2.53,1.08c0-.46.81-.49,1.34-.82a6.47,6.47,0,0,0-2.06.64c1.26.3.55.59.91,1.14,2.69-.62,2.27-1.36,2.33-2C700.37,311.38,700.53,311.11,700.46,310.92Zm-9.88,4.45a2.08,2.08,0,0,1-.85.18l-.08.24a1,1,0,0,0,.93-.42l1.31-.47c.5.31-1,1.61-1.3,2.13.74-.59,1.16-1.51,2.41-1.73-.08.21.11.25-.59.58l1.54-.62c1.39-1.54-.34-.93-2.06-.35-.1-.09-.28-.14-.64-.09S690.79,315.14,690.58,315.38Zm12-6.6-.88.39c-.39.34,0,.46-.15.66C702.62,309.5,703.89,308.77,702.62,308.77Zm-46,32c.52-.38.07,1.15-.94,2.13l1.09-.06c-.39-.36,1.44-2.5,1.61-2.78C658.14,339.12,657.67,340.19,656.61,340.72Zm53.62-10.44c.12-1.15,3.66-1.84,4.3-2.37C712.73,328.36,708.71,329.65,710.24,330.28Zm5.91-1.8c.9-.35,1.19-.35.94-.81.37-.36,1.18-.37,1.56-.74-1.93.23-1.56,1-2.5,1.55l-.83.36A3.24,3.24,0,0,0,716.14,328.48Zm-38.45,15.37,2-.6,1-1.13Zm-19.26,5.09,1.84-.25-.67-.12c0-.21-.37-.48.12-.64l.85-.12a3.16,3.16,0,0,0-.85.12c-1.3.2-3,0-3.18.57.58-.1,3.05-.18,2.89.23Zm17-28.34a3.83,3.83,0,0,0,2.14-1.38A5.21,5.21,0,0,0,675.43,320.6ZM671.33,347c-2.37.39.88-1.14-.69-1l1.2-.3c-2.07,0-1.22,1-2.64,1.22l1-.12c.86.33-1.35.72-1.44,1.17C669.89,347.95,672.27,346.85,671.33,347Zm5.73-28c2.24-.91,1.28-1.64,2.44-2.5C677.63,317.1,678.43,317.84,677.05,319Zm-23.89,31.71.17.14a13.61,13.61,0,0,0,2.55.1l-.17-.12C652,351.34,656.91,350.92,653.16,350.69Z" transform="translate(-448.37 -305.89)" style="fill:#f68b33"/><path d="M682.48,322.05a5,5,0,0,0,1.06-.67Z" transform="translate(-448.37 -305.89)" style="fill:#f68b33"/><path d="M720.24,322.9c.09.12.3.12.57.08C720.75,322.92,720.61,322.87,720.24,322.9Z" transform="translate(-448.37 -305.89)" style="fill:#f68b33"/><polygon points="276.08 15.19 276.24 15.13 276.37 15.04 276.08 15.19" style="fill:#f68b33"/><path d="M687.79,369a7.46,7.46,0,0,1,1.71-2.3c-3,2.85,0-1.15-.06-1.62C687.89,367.1,688.27,367.49,687.79,369Z" transform="translate(-448.37 -305.89)" style="fill:#f68b33"/><path d="M684.35,373.21l.82-.78A3.3,3.3,0,0,0,684.35,373.21Z" transform="translate(-448.37 -305.89)" style="fill:#f68b33"/><path d="M684.89,373.67a5.25,5.25,0,0,0,1.08-2.53c-1.08.38-2.41,3.69-1.63,2.07C683.19,374.41,685.38,372.84,684.89,373.67Z" transform="translate(-448.37 -305.89)" style="fill:#f68b33"/><polygon points="278.72 39.87 278.25 40.16 278.81 39.91 278.72 39.87" style="fill:#f68b33"/><path d="M467.89,391c-2.22-1.94-3.32-2.53-5-2.53a2.59,2.59,0,0,0-2.9,2.69c0,1.52.68,2.1,4.18,3.79,5.8,2.95,7.93,5.89,7.93,11.2,0,7.66-4.94,12.88-12,12.88a18,18,0,0,1-11.68-4.21l4.69-7.49c2.22,1.85,3.49,2.52,5.29,2.52a3.14,3.14,0,0,0,3.33-3.2c0-1.43-.68-2.19-3.5-3.71-6.73-3.45-9-6.31-9-11.7,0-6.65,5.2-11.2,12.79-11.2a15.89,15.89,0,0,1,10.14,3.28Z" transform="translate(-448.37 -305.89)" style="fill:#1e1b1c"/><path d="M496.09,419c-9,0-14.49-7.32-14.49-19.45S487.14,380,496.17,380c9.21,0,14.32,7,14.32,19.53S505.3,419,496.09,419Zm0-29.47c-2.47,0-3.84,3.7-3.84,10.1s1.36,10,3.84,10c2.3,0,3.75-3.79,3.75-10S498.39,389.56,496.09,389.56Z" transform="translate(-448.37 -305.89)" style="fill:#1e1b1c"/><path d="M522.43,380.8V369.35c0-5.81,1.11-8.42,4.52-10.27a13.47,13.47,0,0,1,6.31-1.6,11.82,11.82,0,0,1,4.69.93v10a4,4,0,0,0-2-.59c-2.22,0-3,1.35-3,5.39v7.58h4.94v8.67h-4.86v28.88H522.43V389.47h-4V380.8Z" transform="translate(-448.37 -305.89)" style="fill:#1e1b1c"/><path d="M562.36,370.45V380.8h4.26v8.67h-4.26v28.88H551.7V389.47h-3.58V380.8h3.58V370.45Z" transform="translate(-448.37 -305.89)" style="fill:#1e1b1c"/><path d="M596.11,390.32a4.06,4.06,0,0,0-3.07-1.18c-3.92,0-6.31,3.79-6.31,10.1,0,6.48,2.13,10,6,10a5.22,5.22,0,0,0,3.41-1v9.6A15.25,15.25,0,0,1,590,419c-8.35,0-13.89-7.49-13.89-19,0-12.38,5.54-20,14.66-20a11.6,11.6,0,0,1,5.37,1.09Z" transform="translate(-448.37 -305.89)" style="fill:#1e1b1c"/><path d="M618.54,358.32v28.29c2.3-4.55,5.12-6.57,9-6.57,5.37,0,7,3.11,7,13.22v25.09H623.91V396.88c0-5.13-.43-6.23-2.56-6.23-2.3,0-2.81,1.26-2.81,6.23v21.47H607.89v-60Z" transform="translate(-448.37 -305.89)" style="fill:#1e1b1c"/><path d="M659.21,419c-9,0-14.49-7.32-14.49-19.45S650.26,380,659.29,380c9.21,0,14.32,7,14.32,19.53S668.42,419,659.21,419Zm0-29.47c-2.47,0-3.84,3.7-3.84,10.1s1.36,10,3.84,10c2.3,0,3.75-3.79,3.75-10S661.51,389.56,659.21,389.56Z" transform="translate(-448.37 -305.89)" style="fill:#1e1b1c"/><path d="M695.56,380.8v37.55H684.9V380.8Z" transform="translate(-448.37 -305.89)" style="fill:#1e1b1c"/><path d="M726.9,390.32a4.06,4.06,0,0,0-3.07-1.18c-3.92,0-6.31,3.79-6.31,10.1,0,6.48,2.13,10,6,10a5.22,5.22,0,0,0,3.41-1v9.6a15.25,15.25,0,0,1-6.14,1.18c-8.36,0-13.9-7.49-13.9-19,0-12.38,5.54-20,14.66-20a11.6,11.6,0,0,1,5.37,1.09Z" transform="translate(-448.37 -305.89)" style="fill:#1e1b1c"/><path d="M763.08,406.82c-.68,3.79-.94,4.71-1.87,6.65-1.87,3.54-5.63,5.56-10.31,5.56-9,0-14.41-7-14.41-18.52,0-12.54,5.46-20.46,14.15-20.46,8.27,0,13.13,6.65,13.13,18a28.85,28.85,0,0,1-.26,4.29H746.72c.09,6.65,1.19,8.92,4.09,8.92,2.13,0,3.24-1.35,3.33-4.46Zm-8.52-12c0-4.21-1.45-6.74-3.84-6.74s-3.92,2.53-3.92,6.74a5.59,5.59,0,0,0,.08,1.09h7.67Z" transform="translate(-448.37 -305.89)" style="fill:#1e1b1c"/></svg>