<svg id="Layer_1" data-name="Layer 1" xmlns="http://www.w3.org/2000/svg" width="60" height="60"  viewBox="0 0 64 64"><defs><style>.cls-1{fill:#fff;}.cls-2{fill:#3276bc;}</style></defs><title>Icon_Exchange</title><polygon class="cls-1" points="13.81 20.99 13.81 45.42 35.67 47.57 56.2 47.57 56.64 45.64 56.64 17.51 54.93 16.57 27.96 16.57 13.81 20.99"/><path class="cls-2" d="M6.57,12.75v38.5L34.76,56V8ZM24.45,41.62l-8.23-.68,0-18.2,7.56-.37v3.44L19,26V30.1l4.81.06v3.49L19,33.56v4.16l5.5.34Z"/><path class="cls-2" d="M55.11,48.61H30.28A2.32,2.32,0,0,1,28,46.29V18.1a2.32,2.32,0,0,1,2.32-2.32H55.11a2.32,2.32,0,0,1,2.32,2.32V46.28a2.32,2.32,0,0,1-2.32,2.33ZM30.28,17.51a.59.59,0,0,0-.59.59V46.28a.59.59,0,0,0,.59.59H55.11a.58.58,0,0,0,.59-.59h0V18.1a.58.58,0,0,0-.59-.59H30.28Z"/><path class="cls-2" d="M36.82,33.46c-.22-.12-.45-.26-.68-.41V30.49l3.21,3.43c.07,0,0,.21,0,.25l-.26.26c-.05,0-.18.13-.25.13s-1.19-.62-2-1.1"/><path class="cls-2" d="M36.14,24.43V21h.67a.91.91,0,0,1,.73.34l2.37,2.22a.37.37,0,0,1,0,.38l-1,1.44a.88.88,0,0,1-.71,0l-1-.93a6,6,0,0,0-1,0"/><path class="cls-2" d="M42.42,36.13a46.56,46.56,0,0,1-4,5.6c-.72.88-1.07,1.27-1.55,1.27h-.68V39.56h.34c.62-.55,6.36-6,6.36-6s.23-.05.27,0l.25.26s.15.18.12.25-.6,1.2-1.08,2"/><path class="cls-2" d="M39.48,27.86a46.33,46.33,0,0,1,4.05-5.6c.72-.88,1.06-1.27,1.55-1.27H51a1,1,0,0,1,.94,1v6a.78.78,0,0,1-.34.68L49.39,31A.42.42,0,0,1,49,31L47.6,30a1,1,0,0,1,0-.71l.93-1a5.79,5.79,0,0,0,0-1V25.15a.68.68,0,0,0-.68-.68H45.44c-.63.55-6.39,6-6.39,6s-.22.05-.26,0l-.26-.26c0-.05-.14-.18-.12-.24s.62-1.21,1.09-2"/><path class="cls-2" d="M52,36.11v5.94A1,1,0,0,1,51,43H45.08a.94.94,0,0,1-.73-.34c-.17-.17-2.35-2.21-2.35-2.21a.39.39,0,0,1,0-.39l1-1.44a.85.85,0,0,1,.7,0l1,.93a4.35,4.35,0,0,0,1,0h2.07a.68.68,0,0,0,.68-.67v-2.4c-.55-.63-6-6.39-6-6.39s0-.22,0-.25l.25-.26c.05,0,.19-.14.26-.13s1.19.61,2,1.1a44.31,44.31,0,0,1,5.62,4c.86.72,1.26,1,1.26,1.54"/><path class="cls-2" d="M42.42,36.13a46.56,46.56,0,0,1-4,5.6c-.72.88-1.07,1.27-1.56,1.27H30.89a1,1,0,0,1-.92-1v-6a.81.81,0,0,1,.33-.68L32.53,33a.5.5,0,0,1,.38,0l1.43,1a1,1,0,0,1,0,.71l-.93,1a4.27,4.27,0,0,0,0,1v2.07a.67.67,0,0,0,.68.68H36.5c.62-.55,6.38-6,6.38-6s.22,0,.26,0l.26.26s.14.18.12.25-.61,1.2-1.09,2"/><path class="cls-2" d="M30,27.88V22a1,1,0,0,1,.94-.95h5.92a1,1,0,0,1,.74.34c.18.15,2.36,2.18,2.36,2.18a.45.45,0,0,1,0,.39l-1,1.43a.85.85,0,0,1-.7,0l-1-.93a5.79,5.79,0,0,0-1,0H34.1a.68.68,0,0,0-.68.68v2.4c.54.63,5.95,6.4,5.95,6.4s0,.21,0,.25l-.25.26s-.19.14-.26.13-1.19-.62-2-1.1a46.38,46.38,0,0,1-5.64-4C30.34,28.7,30,28.37,30,27.88"/></svg>